<svg id="Lag_1" data-name="Lag 1" xmlns="http://www.w3.org/2000/svg" viewBox="0 0 816.22 589"><defs><style>.cls-1{fill:#b3b3b3;}.cls-2{fill:#e6e6e6;}.cls-3{fill:#333;}.cls-4{fill:#fff3ff;}.cls-5{fill:#fff;}.cls-6{fill:#d4ecff;}.cls-7{fill:#f47600;}.cls-8{fill:#ff831f;}.cls-9{fill:#f43d00;}.cls-10,.cls-11{fill:none;}.cls-11{stroke:#000;stroke-miterlimit:10;}</style></defs><title>rocket</title><path class="cls-1" d="M349.3,556.6l-45,4.67C83,238.09,343.41,150,343.41,150Z" transform="translate(-160.88 -142)"/><path class="cls-2" d="M315.78,548.72l36.34,5.22c198.12-313.73-8.58-403.81-8.58-403.81Z" transform="translate(-160.88 -142)"/><rect class="cls-3" x="114.73" y="376.59" width="97.68" height="59.26"/><path class="cls-4" d="M215.14,371C98,565,207,698,207,698l36.71-244.18Z" transform="translate(-160.88 -142)"/><path class="cls-4" d="M435.44,363c117.15,194,8.15,327,8.15,327L406.88,445.82Z" transform="translate(-160.88 -142)"/><circle class="cls-5" cx="169.62" cy="180.5" r="46.5"/><circle class="cls-6" cx="170.12" cy="168" r="34"/><circle cx="170.12" cy="162" r="27"/><circle class="cls-5" cx="153.12" cy="177" r="11"/><ellipse cx="164.62" cy="303.5" rx="11.5" ry="9.5"/><path d="M344.17,142h0c-40.74,24.52-60.66,43.91-62.93,44.64s110.47,2.6,112.75,2.64c0,0,2,10.61,0,0Z" transform="translate(-160.88 -142)"/><path class="cls-7" d="M805.61,402c-42.6,194-3,327-3,327L816,484.82Z" transform="translate(-160.88 -142)"/><path class="cls-8" d="M825,404c45.25,194,3.14,327,3.14,327L814,486.82Z" transform="translate(-160.88 -142)"/><path class="cls-9" d="M817.51,371c-14.31,194-1,327-1,327L821,453.82Z" transform="translate(-160.88 -142)"/><path class="cls-1" d="M834.3,556.6l-45,4.67C568,238.09,828.41,150,828.41,150Z" transform="translate(-160.88 -142)"/><path class="cls-2" d="M800.78,548.72l36.34,5.22c198.12-313.73-8.58-403.81-8.58-403.81Z" transform="translate(-160.88 -142)"/><rect class="cls-3" x="599.73" y="376.59" width="97.68" height="59.26"/><path class="cls-4" d="M703.14,371C586,565,695,698,695,698l36.71-244.18Z" transform="translate(-160.88 -142)"/><path class="cls-4" d="M918.69,365.34c121.57,191.26,15.65,326.72,15.65,326.72L892,448.79Z" transform="translate(-160.88 -142)"/><path d="M829.17,142h0c-40.74,24.52-60.66,43.91-62.93,44.64s110.47,2.6,112.75,2.64c0,0,2,10.61,0,0Z" transform="translate(-160.88 -142)"/><line class="cls-10" x1="618.12" y1="137" x2="655.12" y2="171"/><line class="cls-11" x1="614.12" y1="196" x2="653.12" y2="167"/><line class="cls-11" x1="610.08" y1="144.24" x2="653.15" y2="166.75"/><line class="cls-11" x1="697.12" y1="198" x2="658.12" y2="169"/><line class="cls-11" x1="701.15" y1="146.24" x2="658.08" y2="168.75"/></svg>
